<?xml version="1.0" encoding="UTF-8"?>
<svg id="_Слой_1" data-name="Слой 1" xmlns="http://www.w3.org/2000/svg" xmlns:xlink="http://www.w3.org/1999/xlink" viewBox="0 0 1728 210.9">
  <defs>
    <style>
      .cls-1 {
        fill: #1aa8ff;
      }

      .cls-1, .cls-2, .cls-3, .cls-4, .cls-5, .cls-6, .cls-7, .cls-8, .cls-9 {
        stroke-width: 0px;
      }

      .cls-3 {
        fill: #ddd;
      }

      .cls-4 {
        fill: #2b2b2b;
      }

      .cls-5 {
        fill: #bfbfbf;
      }

      .cls-6 {
        fill: #fff;
      }

      .cls-7 {
        fill: #6aafce;
      }

      .cls-8 {
        fill: #e2e2e2;
      }

      .cls-9 {
        fill: url(#_Безымянный_градиент_11);
      }
    </style>
    <linearGradient id="_Безымянный_градиент_11" data-name="Безымянный градиент 11" x1="864" y1="-23.31" x2="864" y2="168.14" gradientTransform="translate(0 31.65)" gradientUnits="userSpaceOnUse">
      <stop offset="0" stop-color="#121212"/>
      <stop offset=".13" stop-color="#141516"/>
      <stop offset=".27" stop-color="#1a2124"/>
      <stop offset=".43" stop-color="#25343b"/>
      <stop offset=".59" stop-color="#344f5b"/>
      <stop offset=".75" stop-color="#477184"/>
      <stop offset=".92" stop-color="#5e9ab5"/>
      <stop offset=".99" stop-color="#6aafce"/>
    </linearGradient>
  </defs>
  <rect class="cls-7" y="189.69" width="1728" height="21.21" transform="translate(1728 400.58) rotate(180)"/>
  <rect class="cls-9" width="1728" height="210"/>
  <rect class="cls-3" x="0" y="196.97" width="1728" height="13.93" transform="translate(1728 407.87) rotate(180)"/>
  <polygon class="cls-7" points="1728 196.97 1627.07 64.95 1567 143.58 1531.66 122.37 1430.95 196.97 1728 196.97"/>
  <polygon class="cls-7" points="0 196.97 51.91 64.95 91.66 163.9 121.7 122.37 153.5 196.97 0 196.97"/>
  <polygon class="cls-7" points="1074.93 196.97 1028.1 100.29 897.36 158.62 883.22 124.14 854.95 154.18 817.85 94.1 777.21 152.41 753.36 130.96 712.72 166.55 586.39 94.1 534.26 196.97 1074.93 196.97"/>
  <polygon class="cls-7" points="511.96 196.97 322.46 169.86 163.44 196.97 511.96 196.97"/>
  <polygon class="cls-7" points="1422.56 196.97 1252.57 154.18 1098.34 196.97 1422.56 196.97"/>
  <polygon class="cls-3" points="1520.62 196.97 1504.28 175.57 1531.66 122.37 1430.95 196.97 1520.62 196.97"/>
  <polygon class="cls-3" points="1627.07 64.95 1613.82 145.54 1585.55 169.86 1646.51 196.97 1559.05 196.97 1535.2 175.57 1552.64 158.62 1547.56 151.97 1567 143.58 1627.07 64.95"/>
  <polygon class="cls-3" points="534.26 196.97 586.39 94.1 627.91 159.67 712.72 166.55 753.36 130.96 749.16 169.86 774.34 183.41 777.21 152.41 817.85 94.1 794.21 171.34 817.85 187.09 817.85 196.97 864 196.97 841.92 180.46 854.95 154.18 883.22 124.14 887.64 169.86 897.36 158.62 1028.1 100.29 972.45 154.18 1012.87 175.57 945.28 196.97 534.26 196.97"/>
  <polygon class="cls-3" points="0 196.97 51.91 64.95 51.91 142.03 38.88 150.64 69.36 165.22 91.66 163.9 121.7 122.37 107.79 179.13 89.9 196.97 0 196.97"/>
  <g>
    <path class="cls-6" d="M1399.1,146.56c0-32.31-39.85-58.5-89-58.5s-89,26.19-89,58.5c0,.25,0,.51.01.76h-.01v57.74h178v-57.74h-.01c0-.25.01-.51.01-.76Z"/>
    <path class="cls-1" d="M1346.08,93.06c-.41-12.75-16.24-23-35.73-23s-35.33,10.25-35.73,23h71.47Z"/>
    <path class="cls-7" d="M1320.1,166.56c0-21.26-17.24-38.5-38.5-38.5-.17,0-.33.01-.5.01h0s-60-.01-60-.01v77h60c.17-.01.33,0,.5,0s.33-.01.5-.01h0s38,.01,38,.01v-38h-.01c0-.17.01-.33.01-.5Z"/>
    <rect class="cls-6" x="1183.1" y="167.06" width="77" height="38"/>
    <circle class="cls-6" cx="1221.6" cy="166.56" r="38.5"/>
    <g>
      <path class="cls-6" d="M1205.65,204.56v-36.72c0-8.42,6.03-15.28,13.45-15.28s13.45,6.85,13.45,15.28v36.72h-26.9Z"/>
      <path class="cls-2" d="M1219.1,154.06c6.59,0,11.95,6.18,11.95,13.78v35.22h-23.9v-35.22c0-7.6,5.36-13.78,11.95-13.78M1219.1,151.06c-8.26,0-14.95,7.51-14.95,16.78v38.22h29.9v-38.22c0-9.27-6.69-16.78-14.95-16.78h0Z"/>
    </g>
    <rect class="cls-1" x="1336.1" y="146.06" width="27" height="15"/>
    <rect class="cls-7" x="1358.1" y="146.06" width="5" height="15"/>
    <rect class="cls-1" x="1367.1" y="146.06" width="27" height="15"/>
    <rect class="cls-7" x="1389.1" y="146.06" width="5" height="15"/>
  </g>
  <g>
    <g>
      <g>
        <polygon class="cls-2" points="653.57 126.25 644.29 116.97 680.49 116.97 690.16 126.64 653.57 126.25"/>
        <polygon class="cls-2" points="690.19 126.6 614.42 202.38 577.44 202.38 653.57 126.25 690.19 126.6"/>
        <rect class="cls-4" x="648.02" y="124.07" width="44.99" height="5.06" transform="translate(1341.02 253.21) rotate(-180)"/>
        <polygon class="cls-2" points="327.8 126.46 289.84 126.46 299.94 116.36 337.29 116.36 327.8 126.46"/>
        <polygon class="cls-2" points="365.76 202.38 289.84 126.46 327.8 126.46 403.6 202.26 365.76 202.38"/>
        <rect class="cls-4" x="295.82" y="114.65" width="387.77" height="5.06" transform="translate(979.41 234.37) rotate(-180)"/>
        <rect class="cls-4" x="638.6" y="133.49" width="44.99" height="5.06" transform="translate(1322.18 272.05) rotate(-180)"/>
        <rect class="cls-4" x="629.18" y="142.91" width="44.99" height="5.06" transform="translate(1303.34 290.88) rotate(-180)"/>
        <rect class="cls-4" x="619.76" y="152.33" width="44.99" height="5.06" transform="translate(1284.51 309.72) rotate(-180)"/>
        <rect class="cls-4" x="610.34" y="161.75" width="44.99" height="5.06" transform="translate(1265.67 328.56) rotate(-180)"/>
        <rect class="cls-4" x="361.69" y="199.43" width="255.96" height="5.06" transform="translate(979.33 403.92) rotate(-180)"/>
        <rect class="cls-4" x="600.92" y="171.17" width="44.99" height="5.06" transform="translate(1246.83 347.4) rotate(-180)"/>
        <rect class="cls-4" x="591.5" y="180.59" width="44.99" height="5.06" transform="translate(1227.99 366.24) rotate(-180)"/>
        <rect class="cls-4" x="582.08" y="190.01" width="44.99" height="5.06" transform="translate(1209.15 385.08) rotate(-180)"/>
        <rect class="cls-4" x="352.76" y="189.94" width="44.99" height="5.06" transform="translate(750.5 384.94) rotate(-180)"/>
        <rect class="cls-4" x="343.27" y="180.45" width="44.99" height="5.06" transform="translate(731.52 365.96) rotate(-180)"/>
        <rect class="cls-4" x="333.78" y="170.96" width="44.99" height="5.06" transform="translate(712.55 346.98) rotate(-180)"/>
        <rect class="cls-4" x="324.29" y="161.47" width="44.99" height="5.06" transform="translate(693.57 328) rotate(-180)"/>
        <rect class="cls-4" x="314.8" y="151.98" width="44.99" height="5.06" transform="translate(674.59 309.02) rotate(-180)"/>
        <rect class="cls-4" x="305.31" y="142.49" width="44.99" height="5.06" transform="translate(655.61 290.04) rotate(-180)"/>
        <rect class="cls-4" x="295.82" y="133" width="44.99" height="5.06" transform="translate(636.63 271.06) rotate(-180)"/>
        <rect class="cls-4" x="286.33" y="123.51" width="44.99" height="5.06" transform="translate(617.65 252.08) rotate(-180)"/>
      </g>
      <polygon class="cls-2" points="646.32 117.18 655.33 126.6 584.15 202.64 376.38 201.96 299.94 117.18 646.32 117.18"/>
      <polygon class="cls-7" points="589 158.17 269.33 162.21 225.52 113.31 629.5 108.2 589 158.17"/>
      <polygon class="cls-6" points="371.52 63.32 539.71 59.28 629.5 108.18 225.52 113.29 371.52 63.32"/>
      <polygon class="cls-1" points="512.44 104.3 492.62 63.37 451.44 104.55 512.44 104.3"/>
      <polygon class="cls-1" points="613.99 103.91 539.72 63.37 496.28 63.37 517.22 104.3 613.99 103.91"/>
      <g>
        <polygon class="cls-2" points="532.2 126.25 522.92 116.97 559.12 116.97 568.78 126.64 532.2 126.25"/>
        <polygon class="cls-2" points="568.82 126.6 493.04 202.38 456.07 202.38 532.2 126.25 568.82 126.6"/>
        <rect class="cls-4" x="526.64" y="124.07" width="44.99" height="5.06" transform="translate(1098.27 253.21) rotate(-180)"/>
        <polygon class="cls-2" points="206.43 126.46 168.47 126.46 178.57 116.36 215.92 116.36 206.43 126.46"/>
        <polygon class="cls-2" points="244.39 202.38 168.47 126.46 206.43 126.46 282.23 202.26 244.39 202.38"/>
        <rect class="cls-4" x="174.45" y="114.65" width="387.77" height="5.06" transform="translate(736.66 234.37) rotate(-180)"/>
        <rect class="cls-4" x="517.22" y="133.49" width="44.99" height="5.06" transform="translate(1079.43 272.05) rotate(-180)"/>
        <rect class="cls-4" x="507.8" y="142.91" width="44.99" height="5.06" transform="translate(1060.6 290.88) rotate(-180)"/>
        <rect class="cls-4" x="498.38" y="152.33" width="44.99" height="5.06" transform="translate(1041.76 309.72) rotate(-180)"/>
        <rect class="cls-4" x="488.96" y="161.75" width="44.99" height="5.06" transform="translate(1022.92 328.56) rotate(-180)"/>
        <rect class="cls-4" x="240.31" y="199.43" width="255.96" height="5.06" transform="translate(736.59 403.92) rotate(-180)"/>
        <rect class="cls-4" x="479.55" y="171.17" width="44.99" height="5.06" transform="translate(1004.08 347.4) rotate(-180)"/>
        <rect class="cls-4" x="470.13" y="180.59" width="44.99" height="5.06" transform="translate(985.24 366.24) rotate(-180)"/>
        <rect class="cls-4" x="460.71" y="190.01" width="44.99" height="5.06" transform="translate(966.4 385.08) rotate(-180)"/>
        <rect class="cls-4" x="231.38" y="189.94" width="44.99" height="5.06" transform="translate(507.76 384.94) rotate(-180)"/>
        <rect class="cls-4" x="221.89" y="180.45" width="44.99" height="5.06" transform="translate(488.78 365.96) rotate(-180)"/>
        <rect class="cls-4" x="212.4" y="170.96" width="44.99" height="5.06" transform="translate(469.8 346.98) rotate(-180)"/>
        <rect class="cls-4" x="202.91" y="161.47" width="44.99" height="5.06" transform="translate(450.82 328) rotate(-180)"/>
        <rect class="cls-4" x="193.42" y="151.98" width="44.99" height="5.06" transform="translate(431.84 309.02) rotate(-180)"/>
        <rect class="cls-4" x="183.94" y="142.49" width="44.99" height="5.06" transform="translate(412.86 290.04) rotate(-180)"/>
        <rect class="cls-4" x="174.45" y="133" width="44.99" height="5.06" transform="translate(393.88 271.06) rotate(-180)"/>
        <rect class="cls-4" x="164.96" y="123.51" width="44.99" height="5.06" transform="translate(374.9 252.08) rotate(-180)"/>
      </g>
      <polygon class="cls-2" points="525.86 119.71 534.8 128.5 464.14 199.43 257.85 198.79 181.96 119.71 525.86 119.71"/>
    </g>
    <circle class="cls-4" cx="209.94" cy="133.49" r="13.69"/>
    <circle class="cls-4" cx="262.39" cy="185.94" r="13.69"/>
    <circle class="cls-4" cx="459.28" cy="185.94" r="13.69"/>
    <circle class="cls-4" cx="410.06" cy="185.94" r="13.69"/>
    <circle class="cls-4" cx="360.83" cy="185.94" r="13.69"/>
    <circle class="cls-4" cx="311.61" cy="185.94" r="13.69"/>
    <circle class="cls-4" cx="512.95" cy="132.27" r="13.69"/>
    <circle class="cls-4" cx="462.45" cy="132.27" r="13.69"/>
    <circle class="cls-4" cx="411.95" cy="132.27" r="13.69"/>
    <circle class="cls-4" cx="361.45" cy="132.27" r="13.69"/>
    <circle class="cls-4" cx="310.95" cy="132.27" r="13.69"/>
    <circle class="cls-4" cx="260.45" cy="132.27" r="13.69"/>
    <circle class="cls-5" cx="459.28" cy="185.94" r="7.47"/>
    <circle class="cls-5" cx="410.06" cy="185.94" r="7.47"/>
    <circle class="cls-5" cx="360.83" cy="185.94" r="7.47"/>
    <circle class="cls-5" cx="311.61" cy="185.94" r="7.47"/>
    <circle class="cls-5" cx="262.39" cy="185.94" r="7.47"/>
    <circle class="cls-5" cx="209.94" cy="133.49" r="7.47"/>
    <circle class="cls-5" cx="260.45" cy="132.27" r="7.47"/>
    <circle class="cls-5" cx="310.95" cy="132.27" r="7.47"/>
    <circle class="cls-5" cx="361.45" cy="132.27" r="7.47"/>
    <circle class="cls-5" cx="411.95" cy="132.27" r="7.47"/>
    <circle class="cls-5" cx="462.45" cy="132.27" r="7.47"/>
    <circle class="cls-5" cx="512.95" cy="132.27" r="7.47"/>
    <rect class="cls-8" x="293.88" y="103.38" width="79.8" height="3.24" transform="translate(667.56 210) rotate(180)"/>
  </g>
  <polygon class="cls-3" points="257.39 206.96 264.73 199.43 286.33 208.51 345.21 208.51 350.3 202.38 358.38 207.63 371.71 208.51 419.42 201.96 487.22 205.86 540.89 208.51 555.13 195 568.82 208.51 598.09 201.96 606.26 209.61 576.01 210.9 257.39 210.9 257.39 206.96"/>
</svg>