<svg width="124" height="100" viewBox="0 0 124 100" fill="none" xmlns="http://www.w3.org/2000/svg">
<path d="M123.894 10C123.894 12.5588 123.03 15.1187 121.301 17.0687L50.5047 97.0687C48.7832 99.0312 46.5155 100 44.2478 100C41.9801 100 39.7179 99.0234 37.9923 97.0703L2.59403 57.0703C0.865598 55.125 0 52.5625 0 50C0 44.2875 4.1344 40 8.84956 40C11.1139 40 13.3794 40.9766 15.1051 42.9297L44.2478 75.875L108.794 2.9375C110.509 0.978125 112.777 0 115.044 0C119.773 0 123.894 4.28125 123.894 10Z" fill="#24F58D"/>
</svg>
