<svg width="100" height="100" viewBox="0 0 100 100" fill="none" xmlns="http://www.w3.org/2000/svg">
<path d="M2.14286 97.8571C3.57143 99.2857 5 100 7.14286 100C9.28571 100 10.7143 99.2857 12.1429 97.8571L50 60L87.8571 97.8571C89.2857 99.2857 91.4286 100 92.8571 100C94.2857 100 96.4286 99.2857 97.8571 97.8571C100.714 95 100.714 90.7143 97.8571 87.8571L60 50L97.8571 12.1429C100.714 9.28571 100.714 5 97.8571 2.14286C95 -0.714286 90.7143 -0.714286 87.8571 2.14286L50 40L12.1429 2.14286C9.28571 -0.714286 5 -0.714286 2.14286 2.14286C-0.714286 5 -0.714286 9.28571 2.14286 12.1429L40 50L2.14286 87.8571C-0.714286 90.7143 -0.714286 95 2.14286 97.8571Z" fill="#EA113F"/>
</svg>
