<svg width="46" height="36" viewBox="0 0 46 36" fill="none" xmlns="http://www.w3.org/2000/svg">
<path id="Vector" d="M38.7889 3.04045C38.7762 3.015 38.7551 2.99506 38.7294 2.9842C35.7632 1.57864 32.633 0.576365 29.4171 0.00245843C29.3879 -0.00315139 29.3577 0.000895598 29.3308 0.0140238C29.304 0.0271521 29.2818 0.0486932 29.2675 0.0755836C28.8412 0.874568 28.4543 1.69526 28.1082 2.53452C24.6416 1.99105 21.1155 1.99105 17.649 2.53452C17.3005 1.69313 16.9074 0.872232 16.4714 0.0755836C16.4564 0.0492775 16.4341 0.0282326 16.4074 0.0151896C16.3807 0.00214665 16.3508 -0.00228975 16.3217 0.00245843C13.1054 0.57516 9.97502 1.57751 7.00918 2.98428C6.98379 2.9954 6.96237 3.01438 6.94787 3.0386C1.01676 12.1863 -0.60799 21.1091 0.189059 29.9214C0.191301 29.943 0.197726 29.9639 0.207951 29.9829C0.218177 30.0019 0.231994 30.0186 0.248581 30.0319C3.70221 32.6729 7.56513 34.6888 11.6725 35.9936C11.7014 36.0025 11.7323 36.0021 11.761 35.9924C11.7897 35.9827 11.8148 35.9641 11.833 35.9392C12.7152 34.6996 13.4969 33.3868 14.1701 32.0144C14.1793 31.9956 14.1846 31.9749 14.1856 31.9539C14.1866 31.9328 14.1832 31.9117 14.1757 31.892C14.1682 31.8724 14.1568 31.8546 14.1421 31.8399C14.1275 31.8251 14.11 31.8137 14.0908 31.8065C12.8582 31.3194 11.6648 30.7322 10.522 30.0504C10.5012 30.0378 10.4838 30.0201 10.4712 29.9989C10.4586 29.9777 10.4513 29.9536 10.4499 29.9288C10.4485 29.9039 10.453 29.8791 10.4631 29.8565C10.4731 29.8339 10.4884 29.8143 10.5076 29.7992C10.7474 29.6137 10.9873 29.4207 11.2163 29.2257C11.2367 29.2084 11.2613 29.1973 11.2874 29.1937C11.3135 29.19 11.3401 29.194 11.3642 29.2051C18.8514 32.7342 26.9573 32.7342 34.3559 29.2051C34.3801 29.1933 34.4069 29.1888 34.4334 29.1921C34.4599 29.1954 34.485 29.2064 34.5056 29.2239C34.7347 29.4188 34.9746 29.6137 35.2162 29.7992C35.2355 29.8141 35.2509 29.8337 35.2611 29.8562C35.2713 29.8787 35.276 29.9035 35.2748 29.9283C35.2735 29.9531 35.2664 29.9772 35.254 29.9985C35.2415 30.0198 35.2242 30.0377 35.2036 30.0504C34.0633 30.7379 32.8689 31.3247 31.633 31.8046C31.6138 31.8122 31.5964 31.8238 31.5819 31.8388C31.5673 31.8538 31.556 31.8717 31.5487 31.8915C31.5413 31.9113 31.5381 31.9325 31.5393 31.9537C31.5404 31.9749 31.5458 31.9956 31.5552 32.0144C32.2397 33.3792 33.0202 34.6903 33.8905 35.9371C33.9082 35.9626 33.9332 35.9818 33.962 35.9919C33.9908 36.002 34.0219 36.0025 34.051 35.9933C38.1658 34.693 42.0354 32.6769 45.4934 30.0319C45.5102 30.0192 45.5243 30.003 45.5345 29.9842C45.5448 29.9655 45.5511 29.9447 45.5529 29.9233C46.5071 19.7353 43.9554 10.8857 38.7889 3.04045ZM15.2882 24.5557C13.034 24.5557 11.1766 22.4192 11.1766 19.7954C11.1766 17.1715 12.998 15.0349 15.2882 15.0349C17.5964 15.0349 19.4358 17.1901 19.3998 19.7952C19.3998 22.4192 17.5783 24.5557 15.2882 24.5557ZM30.4901 24.5557C28.2359 24.5557 26.3785 22.4192 26.3785 19.7954C26.3785 17.1715 28.1999 15.0349 30.4901 15.0349C32.7983 15.0349 34.6377 17.1901 34.6017 19.7952C34.6017 22.4192 32.7983 24.5557 30.4901 24.5557Z" fill="white"/>
</svg>
