<svg width="47" height="46" viewBox="0 0 47 46" fill="none" xmlns="http://www.w3.org/2000/svg">
<g id="Layer_1">
<g id="Group">
<path id="Vector" d="M23.6283 13.5485C17.9493 13.5485 13.2438 18.1728 13.2438 23.9329C13.2438 29.6931 17.8682 34.3174 23.6283 34.3174C29.3885 34.3174 34.0128 29.612 34.0128 23.9329C34.0128 18.2539 29.3073 13.5485 23.6283 13.5485ZM23.6283 30.5855C19.9775 30.5855 16.9758 27.5837 16.9758 23.9329C16.9758 20.2821 19.9775 17.2804 23.6283 17.2804C27.2791 17.2804 30.2809 20.2821 30.2809 23.9329C30.2809 27.5837 27.2791 30.5855 23.6283 30.5855Z" fill="white"/>
<path id="Vector_2" d="M34.4184 15.6579C35.7178 15.6579 36.7711 14.6045 36.7711 13.3051C36.7711 12.0057 35.7178 10.9524 34.4184 10.9524C33.119 10.9524 32.0657 12.0057 32.0657 13.3051C32.0657 14.6045 33.119 15.6579 34.4184 15.6579Z" fill="white"/>
<path id="Vector_3" d="M40.5031 7.22044C38.3937 5.02997 35.392 3.89417 31.9846 3.89417H15.272C8.21383 3.89417 3.50836 8.59963 3.50836 15.6578V32.2892C3.50836 35.7778 4.64416 38.7795 6.91577 40.97C9.10625 43.0793 12.0269 44.134 15.3532 44.134H31.9034C35.392 44.134 38.3126 42.9982 40.4219 40.97C42.6124 38.8607 43.7482 35.8589 43.7482 32.3704V15.6578C43.7482 12.2504 42.6124 9.32979 40.5031 7.22044ZM40.1786 32.3704C40.1786 34.8853 39.2861 36.9136 37.8258 38.2928C36.3655 39.6719 34.3373 40.4021 31.9034 40.4021H15.3532C12.9193 40.4021 10.8911 39.6719 9.43076 38.2928C7.97044 36.8324 7.24028 34.8042 7.24028 32.2892V15.6578C7.24028 13.224 7.97044 11.1958 9.43076 9.73543C10.8099 8.35625 12.9193 7.62609 15.3532 7.62609H32.0657C34.4995 7.62609 36.5278 8.35625 37.9881 9.81656C39.3673 11.2769 40.1786 13.3051 40.1786 15.6578V32.3704Z" fill="white"/>
</g>
</g>
</svg>
