<svg width="19" height="22" viewBox="0 0 19 22" fill="none" xmlns="http://www.w3.org/2000/svg">
<path d="M7.93994 11H17.6899" stroke="white" stroke-width="2" stroke-linecap="round" stroke-linejoin="round"/>
<path d="M13.9473 17.75V20H1.94727V2H13.9473V4.25H15.4473V1.25C15.4473 1.05109 15.3682 0.860322 15.2276 0.71967C15.0869 0.579018 14.8962 0.5 14.6973 0.5H1.19727C0.998353 0.5 0.807588 0.579018 0.666936 0.71967C0.526283 0.860322 0.447266 1.05109 0.447266 1.25V20.75C0.447266 20.9489 0.526283 21.1397 0.666936 21.2803C0.807588 21.421 0.998353 21.5 1.19727 21.5H14.6973C14.8962 21.5 15.0869 21.421 15.2276 21.2803C15.3682 21.1397 15.4473 20.9489 15.4473 20.75V17.75H13.9473Z" fill="white"/>
<path d="M17.6899 11L14.6899 14" stroke="white" stroke-width="2" stroke-linecap="round" stroke-linejoin="round"/>
<path d="M17.6899 11L14.6899 8" stroke="white" stroke-width="2" stroke-linecap="round" stroke-linejoin="round"/>
<path d="M14.6899 5.0675V3.5675" stroke="white" stroke-width="2" stroke-linecap="round" stroke-linejoin="round"/>
<path d="M14.6899 18.5V17" stroke="white" stroke-width="2" stroke-linecap="round" stroke-linejoin="round"/>
</svg>
