<svg width="12" height="18" viewBox="0 0 12 18" fill="none" xmlns="http://www.w3.org/2000/svg">
<path id="Vector" d="M11.4609 7.84569L2.46049 0.344423C2.15452 0.091303 1.76072 -0.0302398 1.36534 0.00641032C0.969957 0.0430605 0.605207 0.234917 0.350966 0.539965C0.0967247 0.845014 -0.0262877 1.23839 0.00886635 1.63396C0.0440204 2.02953 0.234476 2.39504 0.538527 2.65046L8.15606 8.99876L0.538527 15.3471C0.233304 15.6021 0.0417962 15.9679 0.00607064 16.3641C-0.0296549 16.7603 0.0933241 17.1545 0.347993 17.46C0.602661 17.7656 0.968191 17.9576 1.36429 17.9938C1.76038 18.03 2.15465 17.9074 2.46049 17.6531L11.4609 10.1517C11.6297 10.0107 11.7654 9.83436 11.8586 9.63513C11.9517 9.4359 12 9.21865 12 8.99871C12 8.77877 11.9517 8.56151 11.8586 8.36228C11.7654 8.16305 11.6297 7.9867 11.4609 7.84569Z" fill="white"/>
</svg>
