<?xml version="1.0" encoding="UTF-8"?>
<svg id="_Слой_1" data-name="Слой 1" xmlns="http://www.w3.org/2000/svg" xmlns:xlink="http://www.w3.org/1999/xlink" viewBox="0 0 1728 210">
  <defs>
    <style>
      .cls-1 {
        fill: #2e8734;
      }

      .cls-1, .cls-2, .cls-3, .cls-4, .cls-5, .cls-6, .cls-7, .cls-8, .cls-9, .cls-10, .cls-11, .cls-12 {
        stroke-width: 0px;
      }

      .cls-3 {
        fill: #ea4e24;
      }

      .cls-4 {
        fill: #2b2b2b;
      }

      .cls-5 {
        fill: #333;
      }

      .cls-6 {
        fill: #bfbfbf;
      }

      .cls-7 {
        fill: url(#_Безымянный_градиент_16);
      }

      .cls-8 {
        fill: #fff;
      }

      .cls-9 {
        fill: #ffbe2a;
      }

      .cls-10 {
        fill: #e2e2e2;
      }

      .cls-11 {
        fill: #0a0a0a;
      }

      .cls-12 {
        fill: #ce3511;
      }
    </style>
    <linearGradient id="_Безымянный_градиент_16" data-name="Безымянный градиент 16" x1="864" y1="8.34" x2="864" y2="199.79" gradientUnits="userSpaceOnUse">
      <stop offset="0" stop-color="#121212"/>
      <stop offset=".13" stop-color="#161211"/>
      <stop offset=".27" stop-color="#241511"/>
      <stop offset=".42" stop-color="#3b1911"/>
      <stop offset=".58" stop-color="#5b1f11"/>
      <stop offset=".75" stop-color="#842711"/>
      <stop offset=".91" stop-color="#b53011"/>
      <stop offset=".98" stop-color="#ce3511"/>
    </linearGradient>
  </defs>
  <rect class="cls-7" width="1728" height="210"/>
  <rect class="cls-3" x="0" y="196.05" width="1728" height="13.93"/>
  <polygon class="cls-3" points="0 196.05 217.54 111.71 600.51 196.05 0 196.05"/>
  <polygon class="cls-12" points="663.67 195.13 1121.29 151.13 1442.87 196.05 663.67 195.13"/>
  <polygon class="cls-3" points="1728 159.63 1466.72 196.05 1728 196.05 1728 159.63"/>
  <polygon class="cls-12" points="2.35 195.13 309.64 196.05 191.48 166.45 217.54 111.71 2.35 195.13"/>
  <g>
    <rect class="cls-2" x="479.33" y="140.37" width="5.73" height="52.99" rx="1.77" ry="1.77" transform="translate(259.22 -292.09) rotate(45)"/>
    <rect class="cls-2" x="557.84" y="140.37" width="5.73" height="52.99" rx="1.77" ry="1.77" transform="translate(1075.17 -111.62) rotate(135)"/>
    <rect class="cls-2" x="518.73" y="145.92" width="5.73" height="52.99" rx="1.77" ry="1.77" transform="translate(1043.18 344.83) rotate(-180)"/>
    <polygon class="cls-10" points="482.13 154.39 449.7 121.96 449.7 98.06 482.2 130.56 482.13 154.39"/>
    <circle class="cls-2" cx="471.15" cy="187.62" r="17.02"/>
    <circle class="cls-2" cx="521.59" cy="183.88" r="17.02"/>
    <circle class="cls-2" cx="576.66" cy="187.62" r="17.02"/>
    <rect class="cls-10" x="429.95" y="98.06" width="19.75" height="20.88"/>
    <rect class="cls-8" x="436.9" y="117.11" width="110.23" height="42.15"/>
    <rect class="cls-2" x="455.81" y="140.37" width="5.73" height="52.99" rx="1.77" ry="1.77" transform="translate(252.33 -275.46) rotate(45)"/>
    <rect class="cls-2" x="523.19" y="140.37" width="5.73" height="52.99" rx="1.77" ry="1.77" transform="translate(1016.03 -87.13) rotate(135)"/>
    <rect class="cls-2" x="489.15" y="145.92" width="5.73" height="52.99" rx="1.77" ry="1.77" transform="translate(984.03 344.83) rotate(180)"/>
    <rect class="cls-10" x="547.13" y="117.11" width="25.94" height="42.15"/>
    <rect class="cls-10" x="537.38" y="49.79" width="30.85" height="18" transform="translate(1105.6 117.58) rotate(180)"/>
    <rect class="cls-8" x="526.04" y="49.79" width="11.34" height="18" transform="translate(1063.42 117.58) rotate(180)"/>
    <rect class="cls-8" x="537.38" y="67.69" width="5.63" height="49.42"/>
    <rect class="cls-10" x="543.01" y="67.69" width="5.63" height="49.42"/>
    <path class="cls-11" d="M461.57,187.62c0-9.13-7.19-16.55-16.21-16.98v-.04h-8.92v2.05c-5.31,2.88-8.92,8.5-8.92,14.97s3.61,12.09,8.92,14.97v2.05h8.92v-.04c9.02-.43,16.21-7.85,16.21-16.98Z"/>
    <g>
      <path class="cls-4" d="M436.05,204.39c-9.25,0-16.77-7.52-16.77-16.77s7.52-16.77,16.77-16.77,16.77,7.52,16.77,16.77-7.52,16.77-16.77,16.77Z"/>
      <path class="cls-5" d="M436.05,171.1c9.11,0,16.52,7.41,16.52,16.52s-7.41,16.52-16.52,16.52-16.52-7.41-16.52-16.52,7.41-16.52,16.52-16.52M436.05,170.6c-9.4,0-17.02,7.62-17.02,17.02s7.62,17.02,17.02,17.02,17.02-7.62,17.02-17.02-7.62-17.02-17.02-17.02h0Z"/>
    </g>
    <circle class="cls-2" cx="559.72" cy="58.79" r="4.93"/>
    <circle class="cls-6" cx="436.44" cy="187.62" r="8.92"/>
    <path class="cls-11" d="M513.48,190.8c0-9.13-7.19-16.55-16.21-16.98v-.04h-8.92v2.05c-5.31,2.88-8.92,8.5-8.92,14.97s3.61,12.09,8.92,14.97v2.05h8.92v-.04c9.02-.43,16.21-7.85,16.21-16.98Z"/>
    <g>
      <path class="cls-4" d="M487.96,207.57c-9.25,0-16.77-7.52-16.77-16.77s7.52-16.77,16.77-16.77,16.77,7.52,16.77,16.77-7.52,16.77-16.77,16.77Z"/>
      <path class="cls-5" d="M487.96,174.28c9.11,0,16.52,7.41,16.52,16.52s-7.41,16.52-16.52,16.52-16.52-7.41-16.52-16.52,7.41-16.52,16.52-16.52M487.96,173.78c-9.4,0-17.02,7.62-17.02,17.02s7.62,17.02,17.02,17.02,17.02-7.62,17.02-17.02-7.62-17.02-17.02-17.02h0Z"/>
    </g>
    <circle class="cls-6" cx="488.35" cy="190.8" r="8.92"/>
    <path class="cls-11" d="M568.18,181.89c0-9.13-7.19-16.55-16.21-16.98v-.04h-8.92v2.05c-5.31,2.88-8.92,8.5-8.92,14.97s3.61,12.09,8.92,14.97v2.05h8.92v-.04c9.02-.43,16.21-7.85,16.21-16.98Z"/>
    <g>
      <path class="cls-4" d="M542.62,198.66c-9.25,0-16.77-7.52-16.77-16.77s7.52-16.77,16.77-16.77,16.77,7.52,16.77,16.77-7.52,16.77-16.77,16.77Z"/>
      <path class="cls-5" d="M542.62,165.37c9.11,0,16.52,7.41,16.52,16.52s-7.41,16.52-16.52,16.52-16.52-7.41-16.52-16.52,7.41-16.52,16.52-16.52M542.62,164.87c-9.4,0-17.02,7.62-17.02,17.02s7.62,17.02,17.02,17.02,17.02-7.62,17.02-17.02-7.62-17.02-17.02-17.02h0Z"/>
    </g>
    <circle class="cls-6" cx="543.01" cy="181.89" r="8.92"/>
    <polygon class="cls-8" points="462.38 154.39 429.95 121.96 429.95 98.06 462.45 130.56 462.38 154.39"/>
  </g>
  <path class="cls-1" d="M1440.91,151.03c-8.01,0-14.88,4.86-17.83,11.79-3.08-6.62-9.79-11.21-17.57-11.21h0,0c0,9.56,6.92,17.49,16.03,19.08v33.94s3.35,0,3.35,0h3.35s0-34.24,0-34.24h4.51c10.7,0,19.37-8.67,19.37-19.37h-11.2Z"/>
  <path class="cls-9" d="M566.04,36.98s-6.67-12.84-6.31-13.49,8.89-5.04,8.89-5.04l-2.57,18.53Z"/>
  <polygon class="cls-9" points="581.38 47.82 593.61 55.61 593.59 47.91 581.38 47.82"/>
  <polygon class="cls-9" points="575.97 39.91 589 33.72 579.57 24.28 575.97 39.91"/>
</svg>