<svg width="446" height="275" viewBox="0 0 446 275" fill="none" xmlns="http://www.w3.org/2000/svg">
<g clip-path="url(#clip0_1045_676)">
<path d="M446 0H0V274.715H446V0Z" fill="url(#paint0_linear_1045_676)"/>
<path d="M157.533 158.21H108.368V274.715H157.533V158.21Z" fill="url(#paint1_linear_1045_676)"/>
<path d="M157.533 158.21H108.368L127.608 125.61H138.293L157.533 158.21Z" fill="url(#paint2_linear_1045_676)"/>
<path d="M157.533 164.189H108.368V167.519H157.533V164.189Z" fill="#121212"/>
<path d="M337.631 158.21H288.467V274.715H337.631V158.21Z" fill="url(#paint3_linear_1045_676)"/>
<path d="M337.631 158.21H288.467L307.707 125.61H318.392L337.631 158.21Z" fill="url(#paint4_linear_1045_676)"/>
<path d="M337.631 164.189H288.467V167.519H337.631V164.189Z" fill="#121212"/>
<path d="M282.322 131.593H163.682V274.715H282.322V131.593Z" fill="url(#paint5_linear_1045_676)"/>
<path d="M223 18.4614C163.677 63.8488 163.677 131.588 163.677 131.588H282.318C282.318 131.588 282.317 63.844 223 18.4614Z" fill="url(#paint6_linear_1045_676)"/>
<path d="M282.317 131.593H163.69V134.924H282.317V131.593Z" fill="url(#paint7_linear_1045_676)"/>
<path d="M288.476 158.21H282.317V274.715H288.476V158.21Z" fill="#121212"/>
<path d="M163.691 158.21H157.532V274.715H163.691V158.21Z" fill="#121212"/>
<path d="M247.587 192.272H198.423V275H247.587V192.272Z" fill="url(#paint8_linear_1045_676)"/>
<path d="M247.587 213.244V275H265.408L247.587 213.244Z" fill="url(#paint9_linear_1045_676)"/>
<path d="M198.423 213.244V275H180.602L198.423 213.244Z" fill="url(#paint10_linear_1045_676)"/>
<path d="M247.587 192.272L236.414 173.341H209.597L198.423 192.272H247.587Z" fill="url(#paint11_linear_1045_676)"/>
<path d="M231.066 164.279C229.382 161.427 226.317 159.677 223.005 159.677C219.693 159.677 216.628 161.427 214.944 164.279L209.597 173.341H236.414L231.066 164.279Z" fill="#121212"/>
<path d="M241.997 205.937L234.42 196.875C233.756 196.082 232.935 195.375 232 194.763V205.937H241.997Z" fill="#121212"/>
<path d="M211.579 196.875L204.002 205.937H213.999V194.763C213.064 195.37 212.243 196.077 211.579 196.875Z" fill="#121212"/>
<path d="M223 192.272C221.002 192.272 219.076 192.59 217.33 193.174V205.937H228.67V193.174C226.924 192.59 224.993 192.272 223 192.272Z" fill="#121212"/>
</g>
<defs>
<linearGradient id="paint0_linear_1045_676" x1="223" y1="272.329" x2="223" y2="6.80857" gradientUnits="userSpaceOnUse">
<stop stop-color="#EA113F"/>
<stop offset="1" stop-color="#121212"/>
</linearGradient>
<linearGradient id="paint1_linear_1045_676" x1="108.368" y1="216.461" x2="157.533" y2="216.461" gradientUnits="userSpaceOnUse">
<stop stop-color="#DDDDDD"/>
<stop offset="1" stop-color="white"/>
</linearGradient>
<linearGradient id="paint2_linear_1045_676" x1="-0.000332302" y1="141.908" x2="0.474136" y2="141.908" gradientUnits="userSpaceOnUse">
<stop stop-color="#DDDDDD"/>
<stop offset="1" stop-color="white"/>
</linearGradient>
<linearGradient id="paint3_linear_1045_676" x1="288.467" y1="4.70168e-05" x2="337.631" y2="4.70168e-05" gradientUnits="userSpaceOnUse">
<stop stop-color="#DDDDDD"/>
<stop offset="1" stop-color="white"/>
</linearGradient>
<linearGradient id="paint4_linear_1045_676" x1="288.467" y1="141.908" x2="337.631" y2="141.908" gradientUnits="userSpaceOnUse">
<stop stop-color="#DDDDDD"/>
<stop offset="1" stop-color="white"/>
</linearGradient>
<linearGradient id="paint5_linear_1045_676" x1="163.682" y1="203.152" x2="282.318" y2="203.152" gradientUnits="userSpaceOnUse">
<stop stop-color="#CE3511"/>
<stop offset="1" stop-color="#FFBE2A"/>
</linearGradient>
<linearGradient id="paint6_linear_1045_676" x1="163.682" y1="75.0272" x2="282.318" y2="75.0272" gradientUnits="userSpaceOnUse">
<stop stop-color="#CE3511"/>
<stop offset="1" stop-color="#FFBE2A"/>
</linearGradient>
<linearGradient id="paint7_linear_1045_676" x1="163.69" y1="133.254" x2="282.317" y2="133.254" gradientUnits="userSpaceOnUse">
<stop stop-color="#DDDDDD"/>
<stop offset="1" stop-color="white"/>
</linearGradient>
<linearGradient id="paint8_linear_1045_676" x1="198.423" y1="233.636" x2="247.587" y2="233.636" gradientUnits="userSpaceOnUse">
<stop stop-color="#DDDDDD"/>
<stop offset="1" stop-color="white"/>
</linearGradient>
<linearGradient id="paint9_linear_1045_676" x1="247.587" y1="244.122" x2="265.408" y2="244.122" gradientUnits="userSpaceOnUse">
<stop stop-color="#DDDDDD"/>
<stop offset="1" stop-color="white"/>
</linearGradient>
<linearGradient id="paint10_linear_1045_676" x1="180.602" y1="244.122" x2="198.423" y2="244.122" gradientUnits="userSpaceOnUse">
<stop stop-color="#DDDDDD"/>
<stop offset="1" stop-color="white"/>
</linearGradient>
<linearGradient id="paint11_linear_1045_676" x1="198.423" y1="182.807" x2="247.587" y2="182.807" gradientUnits="userSpaceOnUse">
<stop stop-color="#DDDDDD"/>
<stop offset="1" stop-color="white"/>
</linearGradient>
<clipPath id="clip0_1045_676">
<path d="M0 10C0 4.47716 4.47715 0 10 0H436C441.523 0 446 4.47715 446 10V275H0V10Z" fill="white"/>
</clipPath>
</defs>
</svg>
